<svg width="109" height="47" viewBox="0 0 109 47" fill="none" xmlns="http://www.w3.org/2000/svg">
<path d="M2.12598 9H3.36696C7.25362 9 10.3961 12.1663 10.3668 16.0529L10.188 39.7112" stroke="#477EEB" stroke-width="3.7" stroke-linecap="round"/>
<path d="M2.12598 21.8125L2 39.8125" stroke="#477EEB" stroke-width="3.7" stroke-linecap="round"/>
<path d="M19.752 40.224C19.0613 40.224 18.5293 40.028 18.156 39.636C17.8013 39.2253 17.624 38.656 17.624 37.928V28.352C17.624 27.6053 17.8013 27.036 18.156 26.644C18.5293 26.2333 19.0613 26.028 19.752 26.028C20.424 26.028 20.9373 26.2333 21.292 26.644C21.6653 27.036 21.852 27.6053 21.852 28.352V37.928C21.852 38.656 21.6747 39.2253 21.32 39.636C20.9653 40.028 20.4427 40.224 19.752 40.224ZM19.752 23.732C18.968 23.732 18.3613 23.5547 17.932 23.2C17.5213 22.8267 17.316 22.304 17.316 21.632C17.316 20.9413 17.5213 20.4187 17.932 20.064C18.3613 19.6907 18.968 19.504 19.752 19.504C20.536 19.504 21.1333 19.6907 21.544 20.064C21.9547 20.4187 22.16 20.9413 22.16 21.632C22.16 22.304 21.9547 22.8267 21.544 23.2C21.1333 23.5547 20.536 23.732 19.752 23.732ZM33.6002 40.308C32.4989 40.308 31.5189 40.0373 30.6602 39.496C29.8202 38.936 29.2602 38.1987 28.9802 37.284L29.2882 36.36V38.096C29.2882 38.7867 29.1109 39.3187 28.7562 39.692C28.4015 40.0653 27.8882 40.252 27.2162 40.252C26.5442 40.252 26.0215 40.0653 25.6482 39.692C25.2935 39.3187 25.1162 38.7867 25.1162 38.096V22.164C25.1162 21.4547 25.2935 20.9227 25.6482 20.568C26.0215 20.1947 26.5535 20.008 27.2442 20.008C27.9162 20.008 28.4295 20.1947 28.7842 20.568C29.1575 20.9227 29.3442 21.4547 29.3442 22.164V28.8H29.0082C29.3069 27.96 29.8762 27.2787 30.7162 26.756C31.5562 26.2333 32.5175 25.972 33.6002 25.972C34.8135 25.972 35.8682 26.2613 36.7642 26.84C37.6602 27.4187 38.3602 28.24 38.8642 29.304C39.3682 30.368 39.6202 31.6373 39.6202 33.112C39.6202 34.5867 39.3682 35.8653 38.8642 36.948C38.3602 38.0307 37.6509 38.8613 36.7362 39.44C35.8402 40.0187 34.7949 40.308 33.6002 40.308ZM32.3402 37.144C32.9375 37.144 33.4602 36.9947 33.9082 36.696C34.3749 36.3973 34.7295 35.9587 34.9722 35.38C35.2335 34.7827 35.3642 34.0267 35.3642 33.112C35.3642 31.7493 35.0842 30.7507 34.5242 30.116C33.9642 29.4627 33.2362 29.136 32.3402 29.136C31.7429 29.136 31.2109 29.276 30.7442 29.556C30.2962 29.836 29.9415 30.2747 29.6802 30.872C29.4189 31.4507 29.2882 32.1973 29.2882 33.112C29.2882 34.4747 29.5682 35.492 30.1282 36.164C30.6882 36.8173 31.4255 37.144 32.3402 37.144ZM44.334 40.224C43.6434 40.224 43.1114 40.028 42.738 39.636C42.3834 39.2253 42.206 38.656 42.206 37.928V28.352C42.206 27.6053 42.3834 27.036 42.738 26.644C43.1114 26.2333 43.6434 26.028 44.334 26.028C45.006 26.028 45.5194 26.2333 45.874 26.644C46.2474 27.036 46.434 27.6053 46.434 28.352V37.928C46.434 38.656 46.2567 39.2253 45.902 39.636C45.5474 40.028 45.0247 40.224 44.334 40.224ZM44.334 23.732C43.55 23.732 42.9434 23.5547 42.514 23.2C42.1034 22.8267 41.898 22.304 41.898 21.632C41.898 20.9413 42.1034 20.4187 42.514 20.064C42.9434 19.6907 43.55 19.504 44.334 19.504C45.118 19.504 45.7154 19.6907 46.126 20.064C46.5367 20.4187 46.742 20.9413 46.742 21.632C46.742 22.304 46.5367 22.8267 46.126 23.2C45.7154 23.5547 45.118 23.732 44.334 23.732ZM51.8822 40.252C51.1729 40.252 50.6316 40.0653 50.2582 39.692C49.8849 39.3187 49.6982 38.7867 49.6982 38.096V28.156C49.6982 27.4653 49.8756 26.9427 50.2302 26.588C50.6036 26.2147 51.1169 26.028 51.7702 26.028C52.4422 26.028 52.9556 26.2147 53.3102 26.588C53.6649 26.9427 53.8422 27.4653 53.8422 28.156V29.612H53.5622C53.7862 28.492 54.2809 27.624 55.0462 27.008C55.8116 26.392 56.8009 26.0467 58.0142 25.972C58.4809 25.9347 58.8356 26.056 59.0782 26.336C59.3396 26.5973 59.4796 27.036 59.4982 27.652C59.5356 28.2307 59.4142 28.688 59.1342 29.024C58.8729 29.36 58.4249 29.5653 57.7902 29.64L57.1462 29.696C56.0822 29.7893 55.2889 30.0973 54.7662 30.62C54.2622 31.1427 54.0102 31.8987 54.0102 32.888V38.096C54.0102 38.7867 53.8236 39.3187 53.4502 39.692C53.0956 40.0653 52.5729 40.252 51.8822 40.252ZM66.1933 40.308C64.5319 40.308 63.2906 39.8507 62.4693 38.936C61.6479 38.0027 61.2373 36.6213 61.2373 34.792V22.164C61.2373 21.4547 61.4146 20.9227 61.7693 20.568C62.1426 20.1947 62.6746 20.008 63.3653 20.008C64.0373 20.008 64.5506 20.1947 64.9053 20.568C65.2786 20.9227 65.4653 21.4547 65.4653 22.164V34.624C65.4653 35.3893 65.6239 35.9587 65.9413 36.332C66.2773 36.6867 66.7159 36.864 67.2573 36.864C67.4066 36.864 67.5466 36.8547 67.6773 36.836C67.8079 36.8173 67.9479 36.808 68.0973 36.808C68.3959 36.7707 68.6013 36.864 68.7133 37.088C68.8439 37.2933 68.9093 37.7133 68.9093 38.348C68.9093 38.908 68.7973 39.3373 68.5733 39.636C68.3493 39.916 68.0039 40.1027 67.5373 40.196C67.3506 40.2147 67.1359 40.2333 66.8933 40.252C66.6506 40.2893 66.4173 40.308 66.1933 40.308ZM72.6895 40.224C71.9988 40.224 71.4668 40.028 71.0935 39.636C70.7388 39.2253 70.5615 38.656 70.5615 37.928V28.352C70.5615 27.6053 70.7388 27.036 71.0935 26.644C71.4668 26.2333 71.9988 26.028 72.6895 26.028C73.3615 26.028 73.8748 26.2333 74.2295 26.644C74.6028 27.036 74.7895 27.6053 74.7895 28.352V37.928C74.7895 38.656 74.6122 39.2253 74.2575 39.636C73.9028 40.028 73.3802 40.224 72.6895 40.224ZM72.6895 23.732C71.9055 23.732 71.2988 23.5547 70.8695 23.2C70.4588 22.8267 70.2535 22.304 70.2535 21.632C70.2535 20.9413 70.4588 20.4187 70.8695 20.064C71.2988 19.6907 71.9055 19.504 72.6895 19.504C73.4735 19.504 74.0708 19.6907 74.4815 20.064C74.8922 20.4187 75.0975 20.9413 75.0975 21.632C75.0975 22.304 74.8922 22.8267 74.4815 23.2C74.0708 23.5547 73.4735 23.732 72.6895 23.732ZM80.1817 40.252C79.491 40.252 78.959 40.0653 78.5857 39.692C78.231 39.3187 78.0537 38.7867 78.0537 38.096V28.156C78.0537 27.4653 78.231 26.9427 78.5857 26.588C78.959 26.2147 79.4724 26.028 80.1257 26.028C80.7977 26.028 81.311 26.2147 81.6657 26.588C82.0204 26.9427 82.1977 27.4653 82.1977 28.156V29.752L81.8897 28.828C82.319 27.9133 82.9537 27.2133 83.7937 26.728C84.6524 26.224 85.623 25.972 86.7057 25.972C87.807 25.972 88.7124 26.1867 89.4217 26.616C90.131 27.0267 90.663 27.6613 91.0177 28.52C91.3724 29.36 91.5497 30.4333 91.5497 31.74V38.096C91.5497 38.7867 91.363 39.3187 90.9897 39.692C90.635 40.0653 90.1124 40.252 89.4217 40.252C88.7497 40.252 88.227 40.0653 87.8537 39.692C87.499 39.3187 87.3217 38.7867 87.3217 38.096V31.936C87.3217 30.984 87.1444 30.3027 86.7897 29.892C86.4537 29.4627 85.931 29.248 85.2217 29.248C84.3257 29.248 83.607 29.528 83.0657 30.088C82.543 30.648 82.2817 31.3947 82.2817 32.328V38.096C82.2817 39.5333 81.5817 40.252 80.1817 40.252ZM96.834 40.252C96.1434 40.252 95.6114 40.0653 95.238 39.692C94.8834 39.3187 94.706 38.7867 94.706 38.096V22.164C94.706 21.4547 94.8834 20.9227 95.238 20.568C95.6114 20.1947 96.1434 20.008 96.834 20.008C97.506 20.008 98.0194 20.1947 98.374 20.568C98.7474 20.9227 98.934 21.4547 98.934 22.164V31.936H98.99L103.05 27.428C103.461 26.9613 103.834 26.616 104.17 26.392C104.525 26.1493 104.991 26.028 105.57 26.028C106.149 26.028 106.587 26.1773 106.886 26.476C107.203 26.7747 107.362 27.1387 107.362 27.568C107.381 27.9787 107.203 28.3987 106.83 28.828L102.546 33.616V32.02L107.306 37.508C107.661 37.9373 107.81 38.3667 107.754 38.796C107.717 39.2253 107.53 39.58 107.194 39.86C106.858 40.1213 106.429 40.252 105.906 40.252C105.271 40.252 104.758 40.1307 104.366 39.888C103.993 39.6453 103.61 39.272 103.218 38.768L98.99 34.064H98.934V38.096C98.934 39.5333 98.234 40.252 96.834 40.252Z" fill="#477EEB"/>
</svg>
